name Precision Landing05_filtered_grf.mot
datacolumns 37
datarows 10
range 1.329000 1.333500
endheader
time	1_ground_force_vx	1_ground_force_vy	1_ground_force_vz	1_ground_force_px	1_ground_force_py	1_ground_force_pz	1_ground_torque_x	1_ground_torque_y	1_ground_torque_z	2_ground_force_vx	2_ground_force_vy	2_ground_force_vz	2_ground_force_px	2_ground_force_py	2_ground_force_pz	2_ground_torque_x	2_ground_torque_y	2_ground_torque_z	3_ground_force_vx	3_ground_force_vy	3_ground_force_vz	3_ground_force_px	3_ground_force_py	3_ground_force_pz	3_ground_torque_x	3_ground_torque_y	3_ground_torque_z	4_ground_force_vx	4_ground_force_vy	4_ground_force_vz	4_ground_force_px	4_ground_force_py	4_ground_force_pz	4_ground_torque_x	4_ground_torque_y	4_ground_torque_z
            1.329000	            0.006601	            0.019014	           -0.000317	            0.085807	            0.000000	            0.311172	            0.010295	           -0.002946	           -0.006808	           -0.001897	            0.005667	           -0.011335	           -0.174735	            0.000000	            0.224768	           -0.000770	            0.000242	            0.001380	            2.007439	           -1.137777	           -1.608053	            0.352686	            1.256457	            1.892843	           -0.009166	           -0.004068	            0.009433	           -6.354804	            0.499602	           -1.679611	           -0.288418	            1.264865	            1.901051	           -0.016595	            0.001305	           -0.004386
            1.329500	            0.006653	            0.022845	            0.004106	            0.085807	            0.000000	            0.311172	            0.012913	           -0.001441	           -0.008123	           -0.001573	            0.008865	           -0.008704	           -0.174735	            0.000000	            0.224768	           -0.000076	            0.000192	            0.001828	            1.994538	           -1.148761	           -1.609626	            0.352682	            1.256456	            1.892844	           -0.009065	           -0.003904	            0.009588	           -6.369628	            0.504091	           -1.680259	           -0.288423	            1.264867	            1.901054	           -0.017208	            0.001362	           -0.004539
            1.330000	            0.006632	            0.026735	            0.008852	            0.085807	            0.000000	            0.311172	            0.015602	            0.000206	           -0.009455	           -0.001203	            0.012229	           -0.005752	           -0.174735	            0.000000	            0.224768	            0.000676	            0.000136	            0.002292	            1.979338	           -1.159960	           -1.609643	            0.352679	            1.256455	            1.892845	           -0.008972	           -0.003677	            0.009701	           -6.383195	            0.508278	           -1.681221	           -0.288428	            1.264869	            1.901057	           -0.017793	            0.001417	           -0.004686
            1.330500	            0.006534	            0.030642	            0.013893	            0.085807	            0.000000	            0.311172	            0.018336	            0.001989	           -0.010789	           -0.000789	            0.015733	           -0.002487	           -0.174735	            0.000000	            0.224768	            0.001484	            0.000073	            0.002769	            1.962053	           -1.171279	           -1.608132	            0.352676	            1.256454	            1.892845	           -0.008889	           -0.003386	            0.009768	           -6.395479	            0.512173	           -1.682506	           -0.288435	            1.264871	            1.901061	           -0.018347	            0.001469	           -0.004827
            1.331000	            0.006352	            0.034523	            0.019197	            0.085807	            0.000000	            0.311172	            0.021088	            0.003898	           -0.012111	           -0.000331	            0.019350	            0.001080	           -0.174735	            0.000000	            0.224768	            0.002342	            0.000005	            0.003254	            1.942893	           -1.182591	           -1.605193	            0.352673	            1.256453	            1.892846	           -0.008817	           -0.003031	            0.009787	           -6.406486	            0.515774	           -1.683990	           -0.288442	            1.264873	            1.901065	           -0.018869	            0.001519	           -0.004960
            1.331500	            0.006081	            0.038332	            0.024724	            0.085807	            0.000000	            0.311172	            0.023827	            0.005922	           -0.013404	            0.000169	            0.023047	            0.004934	           -0.174735	            0.000000	            0.224768	            0.003246	           -0.000070	            0.003742	            1.922095	           -1.193785	           -1.600913	            0.352669	            1.256452	            1.892846	           -0.008757	           -0.002613	            0.009753	           -6.416202	            0.519089	           -1.685615	           -0.288449	            1.264875	            1.901069	           -0.019356	            0.001566	           -0.005085
            1.332000	            0.005717	            0.042017	            0.030428	            0.085807	            0.000000	            0.311172	            0.026521	            0.008047	           -0.014651	            0.000710	            0.026788	            0.009053	           -0.174735	            0.000000	            0.224768	            0.004187	           -0.000150	            0.004228	            1.899909	           -1.204753	           -1.595391	            0.352666	            1.256451	            1.892847	           -0.008712	           -0.002132	            0.009666	           -6.424609	            0.522126	           -1.687322	           -0.288456	            1.264877	            1.901073	           -0.019808	            0.001610	           -0.005202
            1.332500	            0.005258	            0.045527	            0.036260	            0.085807	            0.000000	            0.311172	            0.029135	            0.010258	           -0.015833	            0.001287	            0.030533	            0.013414	           -0.174735	            0.000000	            0.224768	            0.005159	           -0.000234	            0.004705	            1.876599	           -1.215390	           -1.588740	            0.352663	            1.256450	            1.892847	           -0.008680	           -0.001591	            0.009523	           -6.431681	            0.524897	           -1.689051	           -0.288463	            1.264879	            1.901077	           -0.020223	            0.001650	           -0.005311
            1.333000	            0.004699	            0.048807	            0.042162	            0.085807	            0.000000	            0.311172	            0.031632	            0.012536	           -0.016931	            0.001898	            0.034240	            0.017985	           -0.174735	            0.000000	            0.224768	            0.006153	           -0.000323	            0.005169	            1.852444	           -1.225603	           -1.581059	            0.352661	            1.256449	            1.892847	           -0.008665	           -0.000991	            0.009322	           -6.437381	            0.527417	           -1.690778	           -0.288471	            1.264882	            1.901082	           -0.020602	            0.001688	           -0.005411
            1.333500	            0.004039	            0.051798	            0.048073	            0.085807	            0.000000	            0.311172	            0.033974	            0.014859	           -0.017927	            0.002538	            0.037863	            0.022731	           -0.174735	            0.000000	            0.224768	            0.007159	           -0.000416	            0.005612	            1.827706	           -1.235287	           -1.572499	            0.352658	            1.256448	            1.892848	           -0.008666	           -0.000337	            0.009064	           -6.441683	            0.529697	           -1.692419	           -0.288479	            1.264884	            1.901086	           -0.020944	            0.001722	           -0.005502
